HIERARCHY
ROOT Hips
{
    OFFSET 0.000000 0.000000 0.000000
    CHANNELS 6 Xposition Yposition Zposition Zrotation Yrotation Xrotation
    JOINT Chest
    {
        OFFSET 0.000000 1.634758 -0.000000
        CHANNELS 3 Zrotation Yrotation Xrotation
        JOINT Chest2
        {
            OFFSET 0.000000 2.197341 0.000000
            CHANNELS 3 Zrotation Yrotation Xrotation
            JOINT Neck
            {
                OFFSET 0.000000 0.961544 0.000000
                CHANNELS 3 Zrotation Yrotation Xrotation
                JOINT Head
                {
                    OFFSET 0.000000 0.632542 -0.032565
                    CHANNELS 3 Zrotation Yrotation Xrotation
                    End Site
                    {
                        OFFSET -0.000001 0.439502 2.922845
                    }
                }
            }
            JOINT LeftCollar
            {
                OFFSET 0.167536 0.778237 -0.168280
                CHANNELS 3 Zrotation Yrotation Xrotation
                JOINT LeftShoulder
                {
                    OFFSET 0.831514 -0.002900 0.006458
                    CHANNELS 3 Zrotation Yrotation Xrotation
                    JOINT LeftElbow
                    {
                        OFFSET 2.272872 -0.026639 0.059314
                        CHANNELS 3 Zrotation Yrotation Xrotation
                        JOINT LeftWrist
                        {
                            OFFSET 2.081982 -0.024402 0.054333
                            CHANNELS 3 Zrotation Yrotation Xrotation
                            JOINT LeftHandThumb1
                            {
                                OFFSET 0.218903 -0.128645 0.283837
                                CHANNELS 3 Zrotation Yrotation Xrotation
                                JOINT LeftHandThumb2
                                {
                                    OFFSET 0.137157 -0.025101 0.077902
                                    CHANNELS 3 Zrotation Yrotation Xrotation
                                    JOINT LeftHandThumb3
                                    {
                                        OFFSET 0.165861 -0.067014 0.039226
                                        CHANNELS 3 Zrotation Yrotation Xrotation
                                        End Site
                                        {
                                            OFFSET 0.241157 -0.045065 0.107930
                                        }
                                    }
                                }
                            }
                            JOINT LeftHandFore1
                            {
                                OFFSET 0.767340 -0.016076 0.196678
                                CHANNELS 3 Zrotation Yrotation Xrotation
                                JOINT LeftHandFore2
                                {
                                    OFFSET 0.215173 -0.024035 0.010864
                                    CHANNELS 3 Zrotation Yrotation Xrotation
                                    JOINT LeftHandFore3
                                    {
                                        OFFSET 0.127998 -0.018363 0.006493
                                        CHANNELS 3 Zrotation Yrotation Xrotation
                                        End Site
                                        {
                                            OFFSET 0.191872 -0.022849 0.005461
                                        }
                                    }
                                }
                            }
                            JOINT LeftHandMiddle1
                            {
                                OFFSET 0.709887 -0.008320 0.018526
                                CHANNELS 3 Zrotation Yrotation Xrotation
                                JOINT LeftHandMiddle2
                                {
                                    OFFSET 0.243305 -0.028680 0.006624
                                    CHANNELS 3 Zrotation Yrotation Xrotation
                                    JOINT LeftHandMiddle3
                                    {
                                        OFFSET 0.145223 -0.016669 0.003951
                                        CHANNELS 3 Zrotation Yrotation Xrotation
                                        End Site
                                        {
                                            OFFSET 0.233621 -0.031666 0.006995
                                        }
                                    }
                                }
                            }
                            JOINT LeftHandRing1
                            {
                                OFFSET 0.743817 -0.005823 -0.153668
                                CHANNELS 3 Zrotation Yrotation Xrotation
                                JOINT LeftHandRing2
                                {
                                    OFFSET 0.349394 -0.050632 -0.009675
                                    CHANNELS 3 Zrotation Yrotation Xrotation
                                    JOINT LeftHandRing3
                                    {
                                        OFFSET 0.134332 -0.023631 0.001421
                                        CHANNELS 3 Zrotation Yrotation Xrotation
                                        End Site
                                        {
                                            OFFSET 0.116893 -0.027459 0.001278
                                        }
                                    }
                                }
                            }
                            JOINT LeftHandLittle1
                            {
                                OFFSET 0.689408 -0.053302 -0.308304
                                CHANNELS 3 Zrotation Yrotation Xrotation
                                JOINT LeftHandLittle2
                                {
                                    OFFSET 0.193251 -0.018757 -0.018874
                                    CHANNELS 3 Zrotation Yrotation Xrotation
                                    JOINT LeftHandLittle3
                                    {
                                        OFFSET 0.116994 -0.025997 -0.011519
                                        CHANNELS 3 Zrotation Yrotation Xrotation
                                        End Site
                                        {
                                            OFFSET 0.189726 -0.012367 -0.011818
                                        }
                                    }
                                }
                            }
                        }
                    }
                }
            }
            JOINT RightCollar
            {
                OFFSET -0.167536 0.778237 -0.168280
                CHANNELS 3 Zrotation Yrotation Xrotation
                JOINT RightShoulder
                {
                    OFFSET -0.831514 -0.002900 0.006457
                    CHANNELS 3 Zrotation Yrotation Xrotation
                    JOINT RightElbow
                    {
                        OFFSET -2.272872 -0.026639 0.059313
                        CHANNELS 3 Zrotation Yrotation Xrotation
                        JOINT RightWrist
                        {
                            OFFSET -2.081982 -0.024402 0.054331
                            CHANNELS 3 Zrotation Yrotation Xrotation
                            JOINT RightHandThumb1
                            {
                                OFFSET -0.218911 -0.128571 0.283837
                                CHANNELS 3 Zrotation Yrotation Xrotation
                                JOINT RightHandThumb2
                                {
                                    OFFSET -0.137157 -0.025101 0.077902
                                    CHANNELS 3 Zrotation Yrotation Xrotation
                                    JOINT RightHandThumb3
                                    {
                                        OFFSET -0.165861 -0.067014 0.039226
                                        CHANNELS 3 Zrotation Yrotation Xrotation
                                        End Site
                                        {
                                            OFFSET -0.229436 -0.065997 0.121819
                                        }
                                    }
                                }
                            }
                            JOINT RightHandFore1
                            {
                                OFFSET -0.767344 -0.015991 0.196679
                                CHANNELS 3 Zrotation Yrotation Xrotation
                                JOINT RightHandFore2
                                {
                                    OFFSET -0.215182 -0.023988 0.010864
                                    CHANNELS 3 Zrotation Yrotation Xrotation
                                    JOINT RightHandFore3
                                    {
                                        OFFSET -0.127999 -0.018333 0.006493
                                        CHANNELS 3 Zrotation Yrotation Xrotation
                                        End Site
                                        {
                                            OFFSET -0.191454 -0.022769 0.013914
                                        }
                                    }
                                }
                            }
                            JOINT RightHandMiddle1
                            {
                                OFFSET -0.709887 -0.008302 0.018525
                                CHANNELS 3 Zrotation Yrotation Xrotation
                                JOINT RightHandMiddle2
                                {
                                    OFFSET -0.243299 -0.028704 0.006624
                                    CHANNELS 3 Zrotation Yrotation Xrotation
                                    JOINT RightHandMiddle3
                                    {
                                        OFFSET -0.145226 -0.016685 0.003951
                                        CHANNELS 3 Zrotation Yrotation Xrotation
                                        End Site
                                        {
                                            OFFSET -0.233653 -0.031672 0.005780
                                        }
                                    }
                                }
                            }
                            JOINT RightHandRing1
                            {
                                OFFSET -0.743819 -0.005785 -0.153669
                                CHANNELS 3 Zrotation Yrotation Xrotation
                                JOINT RightHandRing2
                                {
                                    OFFSET -0.349398 -0.050607 -0.009675
                                    CHANNELS 3 Zrotation Yrotation Xrotation
                                    JOINT RightHandRing3
                                    {
                                        OFFSET -0.134041 -0.023657 -0.008853
                                        CHANNELS 3 Zrotation Yrotation Xrotation
                                        End Site
                                        {
                                            OFFSET -0.116640 -0.027483 -0.007746
                                        }
                                    }
                                }
                            }
                            JOINT RightHandLittle1
                            {
                                OFFSET -0.689403 -0.053298 -0.308303
                                CHANNELS 3 Zrotation Yrotation Xrotation
                                JOINT RightHandLittle2
                                {
                                    OFFSET -0.193254 -0.018751 -0.018875
                                    CHANNELS 3 Zrotation Yrotation Xrotation
                                    JOINT RightHandLittle3
                                    {
                                        OFFSET -0.116992 -0.025993 -0.011520
                                        CHANNELS 3 Zrotation Yrotation Xrotation
                                        End Site
                                        {
                                            OFFSET -0.188440 -0.012318 -0.025042
                                        }
                                    }
                                }
                            }
                        }
                    }
                }
            }
        }
    }
    JOINT LeftHip
    {
        OFFSET 0.685143 0.673822 -0.044491
        CHANNELS 3 Zrotation Yrotation Xrotation
        JOINT LeftKnee
        {
            OFFSET 0.085364 -3.750208 0.017676
            CHANNELS 3 Zrotation Yrotation Xrotation
            JOINT LeftAnkle
            {
                OFFSET 0.094583 -4.155206 0.019585
                CHANNELS 3 Zrotation Yrotation Xrotation
                JOINT LeftToe
                {
                    OFFSET -0.000000 -0.395925 0.621478
                    CHANNELS 3 Zrotation Yrotation Xrotation
                    End Site
                    {
                        OFFSET -0.000000 -0.077878 0.321152
                    }
                }
            }
        }
    }
    JOINT RightHip
    {
        OFFSET -0.685143 0.673822 -0.044492
        CHANNELS 3 Zrotation Yrotation Xrotation
        JOINT RightKnee
        {
            OFFSET -0.085364 -3.750208 0.017677
            CHANNELS 3 Zrotation Yrotation Xrotation
            JOINT RightAnkle
            {
                OFFSET -0.094583 -4.155206 0.019585
                CHANNELS 3 Zrotation Yrotation Xrotation
                JOINT RightToe
                {
                    OFFSET -0.000000 -0.395925 0.621478
                    CHANNELS 3 Zrotation Yrotation Xrotation
                    End Site
                    {
                        OFFSET -0.000000 -0.077878 0.321152
                    }
                }
            }
        }
    }
}
MOTION
Frames: 6
Frame Time: 0.033333
-0.016468 8.814916 -0.533716 180.000000 -0.000011 180.000000 -0.000002 0.000000 -3.571785 -0.000002 -0.000000 -3.645257 0.000003 -0.000003 4.684104 0.000005 -0.000009 11.067134 0.114153 -7.219558 -0.025317 -54.732800 -37.674541 11.534732 178.184570 -54.246105 -179.077377 -12.860166 -7.948166 -108.404785 -0.000000 0.000000 0.000003 -0.000001 0.000001 -0.000002 0.000001 -0.000001 0.000000 0.000000 -0.000000 0.000002 0.000000 -0.000005 -0.000003 0.000001 0.000003 -0.000002 0.000000 -0.000003 0.000000 -0.000003 -0.000006 -0.000003 -0.000001 -0.000000 0.000000 -0.000001 -0.000000 -0.000003 0.000001 0.000004 0.000005 -0.000000 0.000002 0.000000 -0.000003 -0.000004 0.000002 -0.000001 -0.000001 -0.000002 0.000002 0.000001 0.000002 -0.821194 5.190995 -0.018157 52.834450 34.889828 2.529124 -178.469925 38.808311 -179.468338 25.248634 -8.707928 -95.265686 -0.000005 -0.000002 -0.000006 0.000002 0.000002 0.000001 -0.000000 -0.000002 0.000003 -0.000001 -0.000000 0.000001 -0.000000 0.000001 -0.000001 0.000000 -0.000000 0.000000 -0.000001 -0.000002 0.000000 0.000001 0.000001 0.000000 -0.000001 0.000001 0.000000 -0.000001 -0.000000 0.000000 0.000000 -0.000000 0.000000 -0.000000 -0.000002 0.000000 0.000000 0.000005 0.000001 0.000000 -0.000006 0.000000 0.000000 -0.000002 0.000001 -4.644079 9.492406 -6.691736 0.056156 0.378552 16.873693 3.139547 2.542969 -12.874399 -0.000000 -0.000001 -0.000000 3.351021 0.266308 -8.302368 -0.105911 -0.514839 23.251286 -5.747953 -10.286878 -15.867441 -0.000000 -0.000000 -0.000002
-0.016463 8.814891 -0.533716 180.000000 -0.000011 180.000000 -0.000062 -0.000019 -3.571534 -0.000064 0.000007 -3.644993 0.000472 -0.000018 4.683894 0.000005 -0.000017 11.066743 0.114222 -7.220088 -0.025317 -54.737175 -37.675358 11.534191 178.184479 -54.249928 -179.077240 -12.862567 -7.946427 -108.402161 -0.000023 0.000004 -0.000014 -0.000001 0.000002 0.000000 -0.000001 -0.000001 0.000000 -0.000020 -0.000006 -0.000026 -0.000001 -0.000005 -0.000002 0.000000 0.000004 0.000003 -0.000014 0.000005 -0.000019 -0.000000 0.000000 0.000000 -0.000002 -0.000001 0.000000 -0.000019 0.000004 -0.000020 -0.000000 0.000003 0.000002 -0.000001 -0.000002 -0.000003 -0.000015 0.000009 -0.000017 -0.000002 -0.000001 0.000000 0.000003 0.000006 0.000000 -0.821269 5.191586 -0.018157 52.837353 34.889629 2.528026 -178.469864 38.812477 -179.468246 25.250834 -8.709638 -95.264061 0.000006 -0.000001 -0.000008 0.000002 0.000001 0.000001 -0.000002 -0.000004 0.000001 0.000008 0.000006 -0.000009 -0.000000 0.000003 0.000000 -0.000001 -0.000000 0.000001 0.000007 0.000005 -0.000010 0.000000 -0.000000 -0.000000 -0.000000 -0.000000 0.000000 0.000003 0.000006 -0.000010 0.000001 0.000000 0.000000 -0.000001 0.000002 0.000001 0.000007 0.000006 -0.000011 0.000001 0.000002 0.000000 -0.000001 -0.000002 0.000000 -4.644107 9.492376 -6.692860 0.056171 0.378601 16.875835 3.139190 2.542979 -12.875362 -0.000000 -0.000003 -0.000002 3.350987 0.266332 -8.303408 -0.105928 -0.514878 23.253155 -5.747752 -10.286935 -15.868281 -0.000001 -0.000003 0.000007
-0.016450 8.814816 -0.533715 180.000000 -0.000011 180.000000 -0.000240 -0.000076 -3.570779 -0.000247 0.000030 -3.644228 0.001873 -0.000065 4.683287 0.000006 -0.000040 11.065597 0.114536 -7.221680 -0.025319 -54.750275 -37.677719 11.532605 178.184158 -54.261303 -179.076859 -12.869678 -7.941271 -108.394348 -0.000033 -0.000003 -0.000017 0.000002 0.000005 0.000002 -0.000003 -0.000002 0.000000 -0.000020 -0.000001 -0.000012 0.000002 -0.000003 -0.000003 -0.000001 0.000002 0.000002 -0.000023 -0.000005 -0.000019 0.000001 -0.000002 0.000000 -0.000000 0.000000 0.000002 -0.000022 -0.000003 -0.000019 -0.000003 -0.000001 0.000000 0.000003 0.000003 0.000002 -0.000023 0.000004 -0.000015 -0.000001 -0.000004 0.000002 0.000001 0.000000 -0.000002 -0.821387 5.193327 -0.018159 52.845924 34.889080 2.524747 -178.469711 38.824818 -179.468018 25.257334 -8.714726 -95.259239 -0.000009 -0.000006 0.000000 0.000001 0.000001 0.000002 -0.000002 -0.000001 0.000000 -0.000002 -0.000006 0.000002 -0.000000 -0.000001 0.000000 -0.000001 -0.000001 0.000000 -0.000001 -0.000003 0.000001 0.000000 0.000002 0.000000 0.000000 0.000000 0.000000 -0.000004 0.000004 0.000002 0.000001 -0.000001 0.000000 -0.000001 0.000004 0.000000 -0.000002 0.000002 0.000002 0.000001 -0.000001 0.000000 -0.000001 0.000002 0.000000 -4.644189 9.492304 -6.695925 0.056209 0.378727 16.881681 3.138139 2.542999 -12.877987 0.000000 -0.000000 0.000006 3.350886 0.266396 -8.306428 -0.105977 -0.514991 23.258566 -5.747168 -10.287095 -15.870715 -0.000001 -0.000000 0.000003
-0.016429 8.814693 -0.533714 180.000000 -0.000011 180.000000 -0.000536 -0.000171 -3.569524 -0.000552 0.000067 -3.642958 0.004191 -0.000142 4.682269 0.000008 -0.000078 11.063706 0.114988 -7.224288 -0.025331 -54.771931 -37.681526 11.530093 178.183655 -54.279987 -179.076202 -12.881330 -7.932796 -108.381477 -0.000029 0.000005 -0.000022 -0.000000 0.000001 -0.000002 -0.000001 -0.000003 -0.000003 -0.000018 0.000002 -0.000022 0.000004 0.000003 0.000000 0.000000 0.000001 0.000002 -0.000012 0.000009 -0.000024 -0.000003 -0.000002 -0.000002 -0.000000 0.000004 0.000002 -0.000014 0.000013 -0.000024 -0.000002 -0.000004 0.000000 -0.000000 0.000001 0.000000 -0.000016 0.000010 -0.000012 -0.000004 -0.000001 -0.000005 0.000003 0.000004 -0.000002 -0.821663 5.196196 -0.018172 52.860180 34.888100 2.519440 -178.469467 38.845058 -179.467636 25.267982 -8.723123 -95.251312 -0.000014 -0.000009 -0.000010 0.000005 0.000005 0.000002 -0.000004 -0.000005 -0.000000 -0.000006 -0.000005 -0.000011 0.000000 -0.000001 0.000000 -0.000000 0.000001 0.000000 -0.000006 -0.000003 -0.000012 0.000001 0.000001 -0.000001 0.000000 0.000003 -0.000001 -0.000009 -0.000003 -0.000012 0.000000 -0.000004 0.000000 0.000000 0.000001 0.000001 -0.000005 0.000001 -0.000011 0.000001 0.000003 0.000000 -0.000001 -0.000001 -0.000000 -4.644327 9.492193 -6.700975 0.056273 0.378938 16.891310 3.136400 2.543020 -12.882302 0.000001 -0.000000 -0.000006 3.350719 0.266512 -8.311477 -0.106058 -0.515180 23.267616 -5.746192 -10.287369 -15.874775 -0.000001 -0.000003 0.000010
-0.016398 8.814523 -0.533713 180.000000 -0.000011 180.000000 -0.000948 -0.000303 -3.567777 -0.000977 0.000120 -3.641173 0.007415 -0.000248 4.680850 0.000011 -0.000131 11.061056 0.115634 -7.227885 -0.025348 -54.801601 -37.686962 11.526465 178.182938 -54.305782 -179.075302 -12.897384 -7.921086 -108.363693 -0.000041 0.000018 0.000000 -0.000003 0.000001 -0.000002 -0.000001 -0.000001 -0.000002 -0.000038 0.000004 -0.000010 -0.000000 -0.000001 0.000005 -0.000001 0.000003 0.000003 -0.000036 0.000006 -0.000005 -0.000003 -0.000004 0.000002 -0.000002 -0.000000 0.000002 -0.000038 0.000008 -0.000003 0.000000 0.000003 0.000003 -0.000003 -0.000003 -0.000002 -0.000041 0.000006 0.000000 -0.000003 0.000002 -0.000003 0.000006 0.000003 0.000007 -0.822048 5.200157 -0.018190 52.879471 34.887009 2.511849 -178.469147 38.873055 -179.467087 25.282633 -8.734753 -95.240356 0.000004 0.000005 -0.000008 0.000003 -0.000000 -0.000000 -0.000001 -0.000007 0.000005 0.000010 0.000004 0.000008 -0.000001 0.000002 0.000000 -0.000000 0.000000 0.000000 0.000009 0.000009 0.000006 0.000000 0.000000 0.000000 -0.000000 0.000000 0.000000 0.000006 0.000011 0.000006 0.000002 0.000002 -0.000001 -0.000001 0.000001 -0.000000 0.000009 0.000013 0.000006 -0.000001 -0.000001 0.000000 0.000000 0.000002 -0.000000 -4.644517 9.492031 -6.708203 0.056364 0.379236 16.905085 3.133975 2.543065 -12.888494 -0.000000 -0.000002 0.000000 3.350486 0.266668 -8.318488 -0.106171 -0.515443 23.280182 -5.744836 -10.287743 -15.880410 -0.000000 -0.000001 -0.000000
-0.016359 8.814303 -0.533711 180.000000 -0.000011 180.000000 -0.001476 -0.000473 -3.565539 -0.001522 0.000187 -3.638898 0.011533 -0.000385 4.679033 0.000014 -0.000197 11.057668 0.116419 -7.232444 -0.025363 -54.839184 -37.693928 11.521804 178.182022 -54.338486 -179.074203 -12.917671 -7.906242 -108.341148 -0.000022 0.000000 0.000002 0.000002 0.000006 -0.000005 0.000002 -0.000002 0.000000 -0.000011 -0.000006 -0.000002 -0.000003 -0.000002 0.000000 -0.000003 0.000001 -0.000003 -0.000006 0.000003 -0.000003 0.000001 0.000001 -0.000002 -0.000001 -0.000002 0.000000 -0.000009 0.000005 0.000000 -0.000002 -0.000003 -0.000002 0.000002 0.000001 0.000000 -0.000009 0.000005 0.000003 -0.000002 -0.000001 -0.000002 -0.000001 0.000002 0.000003 -0.822493 5.205167 -0.018203 52.903923 34.885674 2.502248 -178.468719 38.908520 -179.466400 25.301125 -8.749548 -95.226440 -0.000011 -0.000014 -0.000005 0.000006 0.000006 0.000004 -0.000004 0.000001 -0.000001 -0.000001 -0.000005 -0.000005 -0.000001 -0.000003 0.000000 -0.000001 -0.000001 0.000000 -0.000002 -0.000005 -0.000007 0.000000 0.000001 0.000000 -0.000001 -0.000004 0.000001 -0.000003 -0.000003 -0.000008 0.000001 0.000001 0.000001 -0.000000 -0.000001 0.000000 -0.000001 -0.000003 -0.000007 0.000000 -0.000001 0.000000 -0.000000 -0.000003 0.000000 -4.644763 9.491819 -6.717406 0.056481 0.379619 16.922628 3.130882 2.543124 -12.896372 0.000000 0.000002 -0.000002 3.350187 0.266870 -8.327521 -0.106317 -0.515781 23.296370 -5.743092 -10.288233 -15.887672 -0.000001 -0.000001 -0.000001
